<svg width="201" height="43" viewBox="0 0 201 43" fill="none" xmlns="http://www.w3.org/2000/svg">
<g clip-path="url(#clip0)">
<path d="M54.0215 8.30957H56.9847C57.4025 8.30957 57.7411 8.65015 57.7411 9.07027V12.049C57.7411 12.4691 57.4025 12.8097 56.9847 12.8097H54.0215C53.6037 12.8097 53.265 12.4691 53.265 12.049V9.07027C53.265 8.65015 53.6037 8.30957 54.0215 8.30957Z" fill="white"/>
<path d="M130.44 8.21777H133.403C133.821 8.21777 134.159 8.55835 134.159 8.97847V33.3346C134.159 33.7548 133.821 34.0953 133.403 34.0953H130.44C130.022 34.0953 129.683 33.7548 129.683 33.3346V8.97847C129.683 8.55835 130.022 8.21777 130.44 8.21777Z" fill="white"/>
<path d="M56.9837 34.0958H54.0215C53.604 34.0958 53.265 33.6648 53.265 33.1326V16.6555C53.265 16.1233 53.604 15.6914 54.0215 15.6914H56.9837C57.4021 15.6914 57.7402 16.1233 57.7402 16.6555V33.1298C57.7402 33.6648 57.4021 34.0958 56.9837 34.0958Z" fill="white"/>
<path d="M79.3618 34.096H76.3996C75.9818 34.096 75.6431 33.7554 75.6431 33.3353V16.405C75.6431 15.9849 75.3044 15.6443 74.8866 15.6443H66.5532C66.1354 15.6443 65.7967 15.9849 65.7967 16.405V33.3353C65.7967 33.7554 65.458 34.096 65.0402 34.096H62.078C61.6602 34.096 61.3215 33.7554 61.3215 33.3353V12.3544C61.3215 11.9343 61.6602 11.5938 62.078 11.5938H79.3618C79.7798 11.5937 80.1187 11.9342 80.1192 12.3544V33.3353C80.1187 33.7556 79.7798 34.096 79.3618 34.096Z" fill="white"/>
<path d="M103.945 12.5866L97.2676 33.5675C97.1672 33.8824 96.876 34.0961 96.5471 34.096H90.5802C90.2513 34.0961 89.9601 33.8824 89.8597 33.5675L83.1825 12.5866C83.0554 12.1859 83.2756 11.7574 83.6741 11.6297C83.7484 11.6059 83.8259 11.5938 83.9038 11.5938H87.0102C87.3411 11.594 87.6336 11.8102 87.7325 12.1278L93.2062 29.7752H93.922L99.3957 12.1278C99.4941 11.8099 99.7869 11.5934 100.118 11.5938H103.223C103.642 11.5939 103.981 11.935 103.981 12.3556C103.981 12.434 103.969 12.512 103.945 12.5866Z" fill="white"/>
<path d="M105.157 22.8446C105.157 15.7791 109.05 11.1416 115.853 11.1416C122.656 11.1416 126.55 15.7764 126.55 22.8446C126.55 29.9128 122.657 34.5476 115.853 34.5476C109.049 34.5476 105.157 29.9119 105.157 22.8446V22.8446ZM122.075 22.8446C122.075 16.9931 120.463 15.1949 115.853 15.1949C111.243 15.1949 109.632 16.995 109.632 22.8446C109.632 28.6943 111.244 30.4961 115.853 30.4961C120.462 30.4961 122.075 28.6952 122.075 22.8446Z" fill="white"/>
<path d="M158.37 12.5866L151.693 33.5675C151.593 33.8824 151.302 34.0961 150.973 34.096H145.006C144.677 34.0961 144.386 33.8824 144.285 33.5675L137.606 12.5866C137.479 12.1866 137.698 11.7583 138.096 11.6301C138.171 11.606 138.248 11.5937 138.327 11.5938H141.433C141.764 11.5936 142.057 11.8099 142.156 12.1278L147.629 29.7752H148.346L153.819 12.1278C153.918 11.8102 154.21 11.594 154.541 11.5938H157.65C158.068 11.5942 158.406 11.9352 158.406 12.3553C158.406 12.4338 158.393 12.5119 158.37 12.5866Z" fill="white"/>
<path d="M179.365 24.8701H165.462C165.047 24.8658 164.707 25.2007 164.703 25.6182C164.702 25.6572 164.705 25.6962 164.71 25.7348C165.178 28.4618 166.65 30.4959 171.398 30.4959C173.189 30.4959 174.934 30.4959 177.843 29.686V33.0501C177.834 33.4044 177.59 33.7085 177.248 33.7932C174.199 34.5427 172.999 34.5427 171.398 34.5427C161.283 34.5427 160.03 27.298 160.03 22.8397C160.03 15.7743 162.801 11.1367 169.697 11.1367C176.594 11.1367 179.365 15.3219 179.365 22.3874L179.365 24.8701ZM164.505 20.8196H174.084C174.508 20.8173 174.851 20.4695 174.848 20.0427C174.848 20.028 174.848 20.0132 174.847 19.9985C174.57 16.6641 173.059 15.1947 169.697 15.1947C166.251 15.1947 164.729 17.174 164.505 20.8196Z" fill="white"/>
<path d="M182.497 27.12C186.57 29.6854 188.674 30.4953 191.985 30.4953C194.895 30.4953 195.924 29.2349 195.924 27.8398C195.924 26.2609 194.76 25.4101 190.643 24.5091C184.243 23.1159 182.497 20.9992 182.497 17.4437C182.497 13.708 185.675 11.1436 190.463 11.1436C193.305 11.1436 196.106 11.8699 198.258 13.2482C198.48 13.3952 198.612 13.6452 198.61 13.9123V17.5347C195.342 15.9139 192.477 15.195 190.02 15.195C187.737 15.195 186.971 16.1842 186.971 17.3099C186.971 18.5694 187.553 19.4248 191.358 20.4604C197.982 22.2605 200.399 23.6555 200.399 27.798C200.399 31.6238 197.221 34.5496 191.984 34.5496C188.624 34.5496 185.968 33.9235 182.86 31.9099C182.637 31.7632 182.5 31.5142 182.496 31.2458L182.497 27.12Z" fill="white"/>
<path d="M28.5115 31.3194C28.0722 30.8779 27.3603 30.8779 26.921 31.3194L19.284 38.9189C18.8451 39.3603 18.8451 40.076 19.284 40.5174L20.8367 42.088C21.2764 42.5302 21.9893 42.5302 22.4291 42.0881C22.4291 42.0881 22.4291 42.088 22.4291 42.088L30.0688 34.4848C30.5083 34.0431 30.5085 33.3268 30.0693 32.8849C30.0691 32.8847 30.069 32.8846 30.0688 32.8844L28.5115 31.3194Z" fill="white"/>
<path d="M40.8898 18.8727C40.4501 18.4305 39.7372 18.4305 39.2974 18.8726C39.2974 18.8726 39.2974 18.8726 39.2974 18.8727L31.3538 26.8762C30.9143 27.3179 30.9141 28.0342 31.3533 28.4761C31.3535 28.4763 31.3536 28.4764 31.3538 28.4766L32.9074 30.0444C33.347 30.486 34.0593 30.486 34.4989 30.0444L42.4379 22.0418C42.8764 21.5998 42.8764 20.8843 42.4379 20.4424L40.8898 18.8727Z" fill="white"/>
<path d="M20.7035 27.0624L22.258 28.6311C22.6976 29.0727 23.4099 29.0727 23.8495 28.6311L42.4597 9.93234C42.9014 9.49299 42.9054 8.77671 42.4684 8.33248C42.468 8.33201 42.4675 8.33154 42.4671 8.33108L40.9107 6.76232C40.471 6.32014 39.7581 6.32011 39.3183 6.76225C39.3183 6.76227 39.3183 6.76229 39.3183 6.76232L20.7062 25.462C20.2663 25.9033 20.2651 26.6196 20.7035 27.0624Z" fill="white"/>
<path d="M19.4177 31.4771L17.8631 29.9083C17.4235 29.4668 16.7113 29.4668 16.2717 29.9083L7.24275 38.8955C6.80352 39.3367 6.80315 40.0524 7.24191 40.4941C7.24219 40.4943 7.24247 40.4946 7.24275 40.4949L8.79175 42.0655C9.23098 42.5074 9.94331 42.5076 10.3828 42.066C10.3829 42.0658 10.3831 42.0657 10.3832 42.0655L19.4149 33.0737C19.8524 32.6329 19.8536 31.9195 19.4177 31.4771Z" fill="white"/>
<path d="M19.1736 7.46404C19.6124 7.90571 20.3241 7.90608 20.7634 7.46488C20.7636 7.4646 20.7639 7.46432 20.7642 7.46404L24.4118 3.84168C24.8503 3.39973 24.8503 2.68423 24.4118 2.24227L22.8618 0.6763C22.4226 0.234379 21.7103 0.234176 21.2708 0.675847C21.2707 0.675998 21.2705 0.676149 21.2704 0.6763L17.6219 4.29866C17.1824 4.74033 17.1822 5.45662 17.6214 5.89854C17.6216 5.89869 17.6217 5.89885 17.6219 5.899L19.1736 7.46404Z" fill="white"/>
<path d="M2.80627 23.8973C3.24282 24.3398 3.95339 24.3426 4.39338 23.9036C4.39546 23.9015 4.39754 23.8994 4.39961 23.8973L16.327 11.9148C16.767 11.4765 16.7704 10.7626 16.3345 10.3202C16.332 10.3176 16.3295 10.3151 16.327 10.3126L14.7752 8.74383C14.3387 8.30139 13.6281 8.29859 13.1881 8.73756C13.186 8.73964 13.184 8.74173 13.1819 8.74383L1.25358 20.7264C0.813589 21.1654 0.8108 21.8799 1.24735 22.3223C1.24942 22.3244 1.25149 22.3265 1.25358 22.3286L2.80627 23.8973Z" fill="white"/>
<path d="M22.4029 17.9478L26.7728 13.5694L36.4529 3.87543C36.8919 3.43369 36.8919 2.71777 36.4529 2.27602L34.9039 0.701692C34.4646 0.25977 33.7523 0.259566 33.3128 0.701237C33.3127 0.701389 33.3125 0.70154 33.3124 0.701692L25.027 9.00246L11.8268 22.2231L1.23319 32.8357C0.794665 33.2777 0.794665 33.9932 1.23319 34.4351L2.78681 36.0057C3.22604 36.4477 3.93837 36.4479 4.37785 36.0062C4.378 36.0061 4.37815 36.0059 4.3783 36.0057L22.4029 17.9478Z" fill="white"/>
</g>
<defs>
<clipPath id="clip0">
<rect width="199.494" height="42.0751" fill="white" transform="translate(0.904297 0.344727)"/>
</clipPath>
</defs>
</svg>
